# MagicaVoxel @ Ephtracy

# group
o 

# material
mtllib BarCounterCafe.mtl
usemtl palette

# normals
vn -1 0 0
vn 1 0 0
vn 0 0 1
vn 0 0 -1
vn 0 -1 0
vn 0 1 0

# texcoords
vt 0.365234 0.5

# verts
v 5.1 2.6 -1.1
v 5.1 2.6 -2.1
v 5.1 5.4 -1.1
v 5.1 5.4 -2.1
v 5.4 2.6 -1.1
v 5.4 2.6 -1.9
v 5.4 3.4 -1.1
v 5.4 3.4 -1.9
v 5.4 3.6 -1.1
v 5.4 3.6 -1.9
v 5.4 4.3 -1.1
v 5.4 4.3 -1.9
v 5.4 4.5 -1.1
v 5.4 4.5 -1.9
v 5.4 5.2 -1.1
v 5.4 5.2 -1.9
v 12.4 2.6 -1.9
v 12.4 2.6 -2.1
v 12.4 3.4 -1.1
v 12.4 3.4 -1.9
v 12.4 3.6 -1.1
v 12.4 3.6 -1.9
v 12.4 4.3 -1.1
v 12.4 4.3 -1.9
v 12.4 4.5 -1.1
v 12.4 4.5 -1.9
v 12.4 5.2 -1.1
v 12.4 5.2 -1.9
v 12.4 5.4 -1.1
v 12.4 5.4 -2.1
v 5.1 2.6 -1.1
v 5.1 5.4 -1.1
v 5.4 2.6 -1.1
v 5.4 3.4 -1.1
v 5.4 3.6 -1.1
v 5.4 4.3 -1.1
v 5.4 4.5 -1.1
v 5.4 5.2 -1.1
v 12.4 3.4 -1.1
v 12.4 3.6 -1.1
v 12.4 4.3 -1.1
v 12.4 4.5 -1.1
v 12.4 5.2 -1.1
v 12.4 5.4 -1.1
v 5.4 2.6 -1.9
v 5.4 3.4 -1.9
v 5.4 3.6 -1.9
v 5.4 4.3 -1.9
v 5.4 4.5 -1.9
v 5.4 5.2 -1.9
v 12.4 2.6 -1.9
v 12.4 3.4 -1.9
v 12.4 3.6 -1.9
v 12.4 4.3 -1.9
v 12.4 4.5 -1.9
v 12.4 5.2 -1.9
v 5.1 2.6 -2.1
v 5.1 5.4 -2.1
v 12.4 2.6 -2.1
v 12.4 5.4 -2.1
v 5.1 2.6 -1.1
v 5.4 2.6 -1.1
v 5.4 2.6 -1.9
v 12.4 2.6 -1.9
v 5.1 2.6 -2.1
v 12.4 2.6 -2.1
v 5.4 3.4 -1.1
v 12.4 3.4 -1.1
v 5.4 3.4 -1.9
v 12.4 3.4 -1.9
v 5.4 4.3 -1.1
v 12.4 4.3 -1.1
v 5.4 4.3 -1.9
v 12.4 4.3 -1.9
v 5.4 5.2 -1.1
v 12.4 5.2 -1.1
v 5.4 5.2 -1.9
v 12.4 5.2 -1.9
v 5.4 3.6 -1.1
v 12.4 3.6 -1.1
v 5.4 3.6 -1.9
v 12.4 3.6 -1.9
v 5.4 4.5 -1.1
v 12.4 4.5 -1.1
v 5.4 4.5 -1.9
v 12.4 4.5 -1.9
v 5.1 5.4 -1.1
v 12.4 5.4 -1.1
v 5.1 5.4 -2.1
v 12.4 5.4 -2.1

# faces
f 3/1/1 2/1/1 1/1/1
f 4/1/1 2/1/1 3/1/1
f 5/1/2 6/1/2 7/1/2
f 7/1/2 6/1/2 8/1/2
f 9/1/2 10/1/2 11/1/2
f 11/1/2 10/1/2 12/1/2
f 13/1/2 14/1/2 15/1/2
f 15/1/2 14/1/2 16/1/2
f 17/1/2 18/1/2 20/1/2
f 19/1/2 20/1/2 21/1/2
f 20/1/2 18/1/2 22/1/2
f 21/1/2 20/1/2 22/1/2
f 22/1/2 18/1/2 24/1/2
f 23/1/2 24/1/2 25/1/2
f 24/1/2 18/1/2 26/1/2
f 25/1/2 24/1/2 26/1/2
f 26/1/2 18/1/2 28/1/2
f 27/1/2 28/1/2 29/1/2
f 28/1/2 18/1/2 30/1/2
f 29/1/2 28/1/2 30/1/2
f 33/1/3 32/1/3 31/1/3
f 34/1/3 32/1/3 33/1/3
f 35/1/3 32/1/3 34/1/3
f 36/1/3 32/1/3 35/1/3
f 37/1/3 32/1/3 36/1/3
f 38/1/3 32/1/3 37/1/3
f 39/1/3 35/1/3 34/1/3
f 40/1/3 35/1/3 39/1/3
f 41/1/3 37/1/3 36/1/3
f 42/1/3 37/1/3 41/1/3
f 43/1/3 32/1/3 38/1/3
f 44/1/3 32/1/3 43/1/3
f 51/1/3 46/1/3 45/1/3
f 52/1/3 46/1/3 51/1/3
f 53/1/3 48/1/3 47/1/3
f 54/1/3 48/1/3 53/1/3
f 55/1/3 50/1/3 49/1/3
f 56/1/3 50/1/3 55/1/3
f 57/1/4 58/1/4 59/1/4
f 59/1/4 58/1/4 60/1/4
f 63/1/5 62/1/5 61/1/5
f 65/1/5 63/1/5 61/1/5
f 65/1/5 64/1/5 63/1/5
f 66/1/5 64/1/5 65/1/5
f 69/1/5 68/1/5 67/1/5
f 70/1/5 68/1/5 69/1/5
f 73/1/5 72/1/5 71/1/5
f 74/1/5 72/1/5 73/1/5
f 77/1/5 76/1/5 75/1/5
f 78/1/5 76/1/5 77/1/5
f 79/1/6 80/1/6 81/1/6
f 81/1/6 80/1/6 82/1/6
f 83/1/6 84/1/6 85/1/6
f 85/1/6 84/1/6 86/1/6
f 87/1/6 88/1/6 89/1/6
f 89/1/6 88/1/6 90/1/6
