# MagicaVoxel @ Ephtracy

# group
o 

# material
mtllib Lemon.mtl
usemtl palette

# normals
vn -1 0 0
vn 1 0 0
vn 0 0 1
vn 0 0 -1
vn 0 -1 0
vn 0 1 0

# texcoords
vt 0.0175781 0.5
vt 0.0214844 0.5
vt 0.0410156 0.5

# verts
v 1.8 2.5 -2.1
v 1.8 2.5 -2.5
v 1.8 2.6 -2
v 1.8 2.6 -2.1
v 1.8 2.7 -1.9
v 1.8 2.7 -2
v 1.8 2.7 -2.1
v 1.8 2.7 -2.5
v 1.8 2.8 -1.8
v 1.8 2.8 -1.9
v 1.8 2.8 -2
v 1.8 2.8 -2.1
v 1.8 2.8 -2.2
v 1.8 2.8 -2.4
v 1.8 2.9 -1.7
v 1.8 2.9 -1.8
v 1.8 2.9 -1.9
v 1.8 2.9 -2
v 1.8 2.9 -2.1
v 1.8 2.9 -2.2
v 1.8 2.9 -2.3
v 1.8 3 -1.6
v 1.8 3 -1.7
v 1.8 3 -1.8
v 1.8 3 -1.9
v 1.8 3 -2
v 1.8 3 -2.1
v 1.8 3 -2.2
v 1.8 3.1 -1.5
v 1.8 3.1 -1.6
v 1.8 3.1 -1.7
v 1.8 3.1 -1.8
v 1.8 3.1 -1.9
v 1.8 3.2 -1.4
v 1.8 3.2 -1.5
v 1.8 3.2 -1.6
v 1.8 3.2 -1.7
v 1.8 3.2 -1.8
v 1.8 3.3 -1.5
v 1.8 3.3 -1.6
v 1.8 3.3 -1.7
v 1.8 3.3 -2.3
v 1.8 3.3 -2.4
v 1.8 3.4 -1.3
v 1.8 3.4 -1.4
v 1.8 3.4 -2.2
v 1.8 3.4 -2.3
v 1.8 3.6 -2.4
v 1.8 3.6 -2.5
v 1.8 3.7 -1.6
v 1.8 3.7 -1.9
v 1.8 3.8 -1.6
v 1.8 3.8 -1.8
v 1.8 3.8 -1.9
v 1.8 3.8 -2.1
v 1.8 3.9 -1.8
v 1.8 3.9 -2
v 1.8 3.9 -2.1
v 1.8 3.9 -2.2
v 1.8 3.9 -2.4
v 1.8 3.9 -2.5
v 1.8 4 -2
v 1.8 4 -2.1
v 1.8 4 -2.2
v 1.8 4 -2.3
v 1.8 4 -2.4
v 1.8 4 -2.5
v 1.8 4.1 -2.1
v 1.8 4.1 -2.3
v 1.8 4.2 -2.2
v 1.8 4.2 -2.3
v 1.8 4.3 -1.9
v 1.8 4.3 -2.2
v 1.8 4.3 -2.3
v 1.8 4.3 -2.4
v 1.8 4.3 -2.5
v 1.8 4.4 -1.6
v 1.8 4.4 -1.9
v 1.8 4.4 -2.3
v 1.8 4.4 -2.4
v 1.8 4.5 -1.6
v 1.8 4.5 -1.9
v 1.8 4.5 -2.2
v 1.8 4.5 -2.3
v 1.8 4.6 -1.3
v 1.8 4.6 -1.4
v 1.8 4.6 -1.5
v 1.8 4.6 -1.6
v 1.8 4.6 -1.7
v 1.8 4.6 -2.3
v 1.8 4.6 -2.5
v 1.8 4.7 -1.4
v 1.8 4.7 -1.5
v 1.8 4.7 -1.6
v 1.8 4.7 -1.7
v 1.8 4.7 -1.8
v 1.8 4.7 -2.1
v 1.8 4.7 -2.2
v 1.8 4.8 -1.5
v 1.8 4.8 -1.6
v 1.8 4.8 -1.9
v 1.8 4.8 -2.1
v 1.8 4.8 -2.2
v 1.8 4.8 -2.3
v 1.8 4.9 -1.7
v 1.8 4.9 -1.8
v 1.8 4.9 -1.9
v 1.8 4.9 -2
v 1.8 4.9 -2.2
v 1.8 5 -1.6
v 1.8 5 -1.7
v 1.8 5 -1.8
v 1.8 5 -1.9
v 1.8 5 -2
v 1.8 5 -2.1
v 1.8 5.1 -1.7
v 1.8 5.1 -1.8
v 1.8 5.1 -1.9
v 1.8 5.1 -2.1
v 1.8 5.1 -2.5
v 1.8 5.2 -1.8
v 1.8 5.2 -1.9
v 1.8 5.2 -2.1
v 1.8 5.2 -2.5
v 1.8 5.3 -1.9
v 1.8 5.3 -2.1
v 1.8 5.4 -2.1
v 1.8 5.4 -2.5
v 2.2 2.5 -2.1
v 2.2 2.5 -2.5
v 2.2 2.6 -2
v 2.2 2.6 -2.1
v 2.2 2.7 -1.9
v 2.2 2.7 -2
v 2.2 2.7 -2.1
v 2.2 2.7 -2.5
v 2.2 2.8 -1.8
v 2.2 2.8 -1.9
v 2.2 2.8 -2
v 2.2 2.8 -2.1
v 2.2 2.8 -2.2
v 2.2 2.8 -2.5
v 2.2 2.9 -1.7
v 2.2 2.9 -1.8
v 2.2 2.9 -1.9
v 2.2 2.9 -2
v 2.2 2.9 -2.1
v 2.2 2.9 -2.2
v 2.2 2.9 -2.3
v 2.2 3 -1.6
v 2.2 3 -1.7
v 2.2 3 -1.8
v 2.2 3 -1.9
v 2.2 3 -2
v 2.2 3 -2.1
v 2.2 3 -2.2
v 2.2 3.1 -1.5
v 2.2 3.1 -1.6
v 2.2 3.1 -1.7
v 2.2 3.1 -1.8
v 2.2 3.1 -1.9
v 2.2 3.2 -1.4
v 2.2 3.2 -1.5
v 2.2 3.2 -1.6
v 2.2 3.2 -1.7
v 2.2 3.2 -1.8
v 2.2 3.3 -1.5
v 2.2 3.3 -1.6
v 2.2 3.3 -1.7
v 2.2 3.3 -2.3
v 2.2 3.3 -2.4
v 2.2 3.4 -1.3
v 2.2 3.4 -1.4
v 2.2 3.4 -2.2
v 2.2 3.4 -2.3
v 2.2 3.7 -1.6
v 2.2 3.7 -1.9
v 2.2 3.7 -2.4
v 2.2 3.7 -2.5
v 2.2 3.8 -1.6
v 2.2 3.8 -1.8
v 2.2 3.8 -1.9
v 2.2 3.8 -2.1
v 2.2 3.9 -1.8
v 2.2 3.9 -2
v 2.2 3.9 -2.1
v 2.2 3.9 -2.2
v 2.2 4 -2
v 2.2 4 -2.1
v 2.2 4 -2.2
v 2.2 4 -2.3
v 2.2 4 -2.4
v 2.2 4 -2.5
v 2.2 4.1 -2.1
v 2.2 4.1 -2.3
v 2.2 4.2 -2.2
v 2.2 4.2 -2.3
v 2.2 4.3 -1.9
v 2.2 4.3 -2.2
v 2.2 4.3 -2.3
v 2.2 4.3 -2.4
v 2.2 4.3 -2.5
v 2.2 4.4 -1.6
v 2.2 4.4 -1.9
v 2.2 4.4 -2.3
v 2.2 4.4 -2.4
v 2.2 4.5 -1.6
v 2.2 4.5 -1.9
v 2.2 4.5 -2.2
v 2.2 4.5 -2.3
v 2.2 4.6 -1.3
v 2.2 4.6 -1.4
v 2.2 4.6 -1.5
v 2.2 4.6 -1.6
v 2.2 4.6 -1.7
v 2.2 4.6 -2.3
v 2.2 4.6 -2.4
v 2.2 4.7 -1.4
v 2.2 4.7 -1.5
v 2.2 4.7 -1.6
v 2.2 4.7 -1.7
v 2.2 4.7 -1.8
v 2.2 4.7 -2.1
v 2.2 4.7 -2.2
v 2.2 4.7 -2.4
v 2.2 4.7 -2.5
v 2.2 4.8 -1.5
v 2.2 4.8 -1.6
v 2.2 4.8 -1.9
v 2.2 4.8 -2.1
v 2.2 4.8 -2.2
v 2.2 4.8 -2.3
v 2.2 4.9 -1.7
v 2.2 4.9 -1.8
v 2.2 4.9 -1.9
v 2.2 4.9 -2
v 2.2 4.9 -2.2
v 2.2 5 -1.6
v 2.2 5 -1.7
v 2.2 5 -1.8
v 2.2 5 -1.9
v 2.2 5 -2
v 2.2 5 -2.1
v 2.2 5.1 -1.7
v 2.2 5.1 -1.8
v 2.2 5.1 -1.9
v 2.2 5.1 -2.1
v 2.2 5.1 -2.5
v 2.2 5.2 -1.8
v 2.2 5.2 -1.9
v 2.2 5.2 -2.1
v 2.2 5.2 -2.5
v 2.2 5.3 -1.9
v 2.2 5.3 -2.1
v 2.2 5.4 -2.1
v 2.2 5.4 -2.5
v 1.8 3.4 -1.3
v 1.8 4.6 -1.3
v 2.2 3.4 -1.3
v 2.2 4.6 -1.3
v 1.8 3.2 -1.4
v 1.8 3.4 -1.4
v 1.8 4.6 -1.4
v 1.8 4.7 -1.4
v 2.2 3.2 -1.4
v 2.2 3.4 -1.4
v 2.2 4.6 -1.4
v 2.2 4.7 -1.4
v 1.8 3.1 -1.5
v 1.8 3.2 -1.5
v 1.8 4.7 -1.5
v 1.8 4.8 -1.5
v 2.2 3.1 -1.5
v 2.2 3.2 -1.5
v 2.2 4.7 -1.5
v 2.2 4.8 -1.5
v 1.8 3 -1.6
v 1.8 3.1 -1.6
v 1.8 4.8 -1.6
v 1.8 5 -1.6
v 2.2 3 -1.6
v 2.2 3.1 -1.6
v 2.2 4.8 -1.6
v 2.2 5 -1.6
v 1.8 2.9 -1.7
v 1.8 3 -1.7
v 1.8 5 -1.7
v 1.8 5.1 -1.7
v 2.2 2.9 -1.7
v 2.2 3 -1.7
v 2.2 5 -1.7
v 2.2 5.1 -1.7
v 1.8 2.8 -1.8
v 1.8 2.9 -1.8
v 1.8 5.1 -1.8
v 1.8 5.2 -1.8
v 2.2 2.8 -1.8
v 2.2 2.9 -1.8
v 2.2 5.1 -1.8
v 2.2 5.2 -1.8
v 1.8 2.7 -1.9
v 1.8 2.8 -1.9
v 1.8 5.2 -1.9
v 1.8 5.3 -1.9
v 2.2 2.7 -1.9
v 2.2 2.8 -1.9
v 2.2 5.2 -1.9
v 2.2 5.3 -1.9
v 1.8 2.6 -2
v 1.8 2.7 -2
v 2.2 2.6 -2
v 2.2 2.7 -2
v 1.8 2.5 -2.1
v 1.8 2.6 -2.1
v 1.8 5.3 -2.1
v 1.8 5.4 -2.1
v 2.2 2.5 -2.1
v 2.2 2.6 -2.1
v 2.2 5.3 -2.1
v 2.2 5.4 -2.1
v 1.8 2.5 -2.5
v 1.8 2.7 -2.5
v 1.8 3.6 -2.5
v 1.8 3.9 -2.5
v 1.8 4 -2.5
v 1.8 4.3 -2.5
v 1.8 4.6 -2.5
v 1.8 5.1 -2.5
v 1.8 5.2 -2.5
v 1.8 5.4 -2.5
v 1.9 2.8 -2.5
v 1.9 3.5 -2.5
v 1.9 3.6 -2.5
v 1.9 3.7 -2.5
v 1.9 4.4 -2.5
v 1.9 4.5 -2.5
v 1.9 4.6 -2.5
v 1.9 5.1 -2.5
v 2 3.5 -2.5
v 2 3.6 -2.5
v 2 3.7 -2.5
v 2 3.8 -2.5
v 2 4.5 -2.5
v 2 4.6 -2.5
v 2 4.8 -2.5
v 2 4.9 -2.5
v 2.1 3.6 -2.5
v 2.1 3.7 -2.5
v 2.1 3.8 -2.5
v 2.1 3.9 -2.5
v 2.1 4.4 -2.5
v 2.1 4.6 -2.5
v 2.1 4.7 -2.5
v 2.1 4.8 -2.5
v 2.1 4.9 -2.5
v 2.1 5.1 -2.5
v 2.2 2.5 -2.5
v 2.2 2.7 -2.5
v 2.2 2.8 -2.5
v 2.2 3.7 -2.5
v 2.2 4 -2.5
v 2.2 4.3 -2.5
v 2.2 4.7 -2.5
v 2.2 5.1 -2.5
v 2.2 5.2 -2.5
v 2.2 5.4 -2.5
v 1.8 2.5 -2.1
v 2.2 2.5 -2.1
v 1.8 2.5 -2.5
v 2.2 2.5 -2.5
v 1.8 2.6 -2
v 2.2 2.6 -2
v 1.8 2.6 -2.1
v 2.2 2.6 -2.1
v 1.8 2.7 -1.9
v 2.2 2.7 -1.9
v 1.8 2.7 -2
v 2.2 2.7 -2
v 1.8 2.8 -1.8
v 2.2 2.8 -1.8
v 1.8 2.8 -1.9
v 2.2 2.8 -1.9
v 1.8 2.9 -1.7
v 2.2 2.9 -1.7
v 1.8 2.9 -1.8
v 2.2 2.9 -1.8
v 1.8 3 -1.6
v 2.2 3 -1.6
v 1.8 3 -1.7
v 2.2 3 -1.7
v 1.8 3.1 -1.5
v 2.2 3.1 -1.5
v 1.8 3.1 -1.6
v 2.2 3.1 -1.6
v 1.8 3.2 -1.4
v 2.2 3.2 -1.4
v 1.8 3.2 -1.5
v 2.2 3.2 -1.5
v 1.8 3.4 -1.3
v 2.2 3.4 -1.3
v 1.8 3.4 -1.4
v 2.2 3.4 -1.4
v 1.8 4.6 -1.3
v 2.2 4.6 -1.3
v 1.8 4.6 -1.4
v 2.2 4.6 -1.4
v 1.8 4.7 -1.4
v 2.2 4.7 -1.4
v 1.8 4.7 -1.5
v 2.2 4.7 -1.5
v 1.8 4.8 -1.5
v 2.2 4.8 -1.5
v 1.8 4.8 -1.6
v 2.2 4.8 -1.6
v 1.8 5 -1.6
v 2.2 5 -1.6
v 1.8 5 -1.7
v 2.2 5 -1.7
v 1.8 5.1 -1.7
v 2.2 5.1 -1.7
v 1.8 5.1 -1.8
v 2.2 5.1 -1.8
v 1.8 5.2 -1.8
v 2.2 5.2 -1.8
v 1.8 5.2 -1.9
v 2.2 5.2 -1.9
v 1.8 5.3 -1.9
v 2.2 5.3 -1.9
v 1.8 5.3 -2.1
v 2.2 5.3 -2.1
v 1.8 5.4 -2.1
v 2.2 5.4 -2.1
v 1.8 5.4 -2.5
v 2.2 5.4 -2.5

# faces
f 4/2/1 2/2/1 1/2/1
f 6/2/1 4/2/1 3/2/1
f 7/2/1 2/2/1 4/2/1
f 7/2/1 4/2/1 6/2/1
f 8/2/1 2/2/1 7/2/1
f 10/2/1 6/2/1 5/2/1
f 10/2/1 7/2/1 6/2/1
f 11/2/1 7/2/1 10/2/1
f 12/1/1 8/1/1 7/1/1
f 12/2/1 7/2/1 11/2/1
f 13/1/1 8/1/1 12/1/1
f 14/1/1 8/1/1 13/1/1
f 16/2/1 11/2/1 10/2/1
f 16/2/1 10/2/1 9/2/1
f 17/2/1 11/2/1 16/2/1
f 18/1/1 12/1/1 11/1/1
f 18/2/1 11/2/1 17/2/1
f 18/1/1 13/1/1 12/1/1
f 19/1/1 13/1/1 18/1/1
f 20/3/1 14/3/1 13/3/1
f 20/1/1 13/1/1 19/1/1
f 21/3/1 14/3/1 20/3/1
f 23/2/1 17/2/1 16/2/1
f 23/2/1 16/2/1 15/2/1
f 24/2/1 17/2/1 23/2/1
f 25/1/1 18/1/1 17/1/1
f 25/2/1 17/2/1 24/2/1
f 26/3/1 19/3/1 18/3/1
f 26/1/1 18/1/1 25/1/1
f 27/1/1 21/1/1 20/1/1
f 27/3/1 19/3/1 26/3/1
f 27/1/1 20/1/1 19/1/1
f 28/1/1 21/1/1 27/1/1
f 30/2/1 24/2/1 23/2/1
f 30/2/1 23/2/1 22/2/1
f 31/2/1 24/2/1 30/2/1
f 32/1/1 25/1/1 24/1/1
f 32/2/1 24/2/1 31/2/1
f 33/3/1 26/3/1 25/3/1
f 33/1/1 25/1/1 32/1/1
f 33/3/1 28/3/1 27/3/1
f 33/3/1 27/3/1 26/3/1
f 35/2/1 31/2/1 30/2/1
f 35/2/1 30/2/1 29/2/1
f 36/2/1 31/2/1 35/2/1
f 37/1/1 32/1/1 31/1/1
f 37/2/1 31/2/1 36/2/1
f 38/3/1 33/3/1 32/3/1
f 38/1/1 32/1/1 37/1/1
f 39/2/1 36/2/1 35/2/1
f 39/2/1 35/2/1 34/2/1
f 40/1/1 37/1/1 36/1/1
f 40/2/1 36/2/1 39/2/1
f 41/3/1 38/3/1 37/3/1
f 41/1/1 37/1/1 40/1/1
f 42/3/1 14/3/1 21/3/1
f 42/1/1 21/1/1 28/1/1
f 43/1/1 8/1/1 14/1/1
f 43/3/1 14/3/1 42/3/1
f 45/2/1 39/2/1 34/2/1
f 46/1/1 42/1/1 28/1/1
f 46/3/1 28/3/1 33/3/1
f 46/3/1 38/3/1 41/3/1
f 46/3/1 33/3/1 38/3/1
f 46/1/1 43/1/1 42/1/1
f 46/3/1 41/3/1 40/3/1
f 47/1/1 43/1/1 46/1/1
f 48/1/1 8/1/1 43/1/1
f 48/1/1 43/1/1 47/1/1
f 49/1/1 8/1/1 48/1/1
f 50/1/1 40/1/1 39/1/1
f 50/3/1 47/3/1 46/3/1
f 50/3/1 46/3/1 40/3/1
f 51/3/1 47/3/1 50/3/1
f 52/1/1 50/1/1 39/1/1
f 52/1/1 51/1/1 50/1/1
f 53/1/1 51/1/1 52/1/1
f 54/3/1 47/3/1 51/3/1
f 54/1/1 51/1/1 53/1/1
f 55/3/1 47/3/1 54/3/1
f 56/3/1 53/3/1 52/3/1
f 56/1/1 54/1/1 53/1/1
f 56/1/1 55/1/1 54/1/1
f 57/1/1 55/1/1 56/1/1
f 58/3/1 47/3/1 55/3/1
f 58/1/1 55/1/1 57/1/1
f 59/3/1 47/3/1 58/3/1
f 60/3/1 49/3/1 48/3/1
f 60/1/1 48/1/1 47/1/1
f 61/3/1 49/3/1 60/3/1
f 62/1/1 59/1/1 58/1/1
f 62/3/1 57/3/1 56/3/1
f 62/1/1 58/1/1 57/1/1
f 63/1/1 59/1/1 62/1/1
f 64/3/1 47/3/1 59/3/1
f 64/1/1 59/1/1 63/1/1
f 65/1/1 61/1/1 60/1/1
f 65/3/1 47/3/1 64/3/1
f 65/1/1 60/1/1 47/1/1
f 66/1/1 61/1/1 65/1/1
f 67/1/1 61/1/1 66/1/1
f 68/3/1 63/3/1 62/3/1
f 68/1/1 64/1/1 63/1/1
f 68/1/1 65/1/1 64/1/1
f 68/1/1 66/1/1 65/1/1
f 69/1/1 66/1/1 68/1/1
f 70/3/1 69/3/1 68/3/1
f 71/1/1 66/1/1 69/1/1
f 71/3/1 69/3/1 70/3/1
f 72/3/1 62/3/1 56/3/1
f 72/3/1 68/3/1 62/3/1
f 72/3/1 70/3/1 68/3/1
f 73/1/1 71/1/1 70/1/1
f 73/3/1 70/3/1 72/3/1
f 74/1/1 66/1/1 71/1/1
f 74/1/1 71/1/1 73/1/1
f 75/3/1 67/3/1 66/3/1
f 75/1/1 66/1/1 74/1/1
f 76/3/1 67/3/1 75/3/1
f 77/1/1 52/1/1 39/1/1
f 77/3/1 56/3/1 52/3/1
f 77/3/1 72/3/1 56/3/1
f 78/1/1 74/1/1 73/1/1
f 78/3/1 72/3/1 77/3/1
f 78/1/1 73/1/1 72/1/1
f 79/3/1 75/3/1 74/3/1
f 79/1/1 74/1/1 78/1/1
f 80/1/1 76/1/1 75/1/1
f 80/3/1 75/3/1 79/3/1
f 81/1/1 77/1/1 39/1/1
f 81/1/1 78/1/1 77/1/1
f 82/3/1 79/3/1 78/3/1
f 82/1/1 78/1/1 81/1/1
f 83/3/1 79/3/1 82/3/1
f 84/1/1 80/1/1 79/1/1
f 84/3/1 79/3/1 83/3/1
f 85/2/1 45/2/1 44/2/1
f 86/2/1 39/2/1 45/2/1
f 86/2/1 45/2/1 85/2/1
f 87/1/1 81/1/1 39/1/1
f 87/2/1 39/2/1 86/2/1
f 88/3/1 83/3/1 82/3/1
f 88/1/1 81/1/1 87/1/1
f 88/3/1 82/3/1 81/3/1
f 89/3/1 83/3/1 88/3/1
f 90/1/1 80/1/1 84/1/1
f 90/1/1 84/1/1 83/1/1
f 91/1/1 76/1/1 80/1/1
f 91/1/1 80/1/1 90/1/1
f 92/2/1 87/2/1 86/2/1
f 92/2/1 88/2/1 87/2/1
f 93/2/1 88/2/1 92/2/1
f 94/1/1 89/1/1 88/1/1
f 94/2/1 88/2/1 93/2/1
f 95/3/1 83/3/1 89/3/1
f 95/1/1 89/1/1 94/1/1
f 96/3/1 83/3/1 95/3/1
f 97/3/1 83/3/1 96/3/1
f 98/1/1 90/1/1 83/1/1
f 98/3/1 83/3/1 97/3/1
f 99/2/1 94/2/1 93/2/1
f 99/2/1 95/2/1 94/2/1
f 100/2/1 95/2/1 99/2/1
f 101/3/1 97/3/1 96/3/1
f 102/1/1 98/1/1 97/1/1
f 102/3/1 97/3/1 101/3/1
f 103/1/1 90/1/1 98/1/1
f 103/1/1 98/1/1 102/1/1
f 104/3/1 91/3/1 90/3/1
f 104/1/1 90/1/1 103/1/1
f 105/2/1 95/2/1 100/2/1
f 105/1/1 96/1/1 95/1/1
f 106/3/1 101/3/1 96/3/1
f 106/1/1 96/1/1 105/1/1
f 107/1/1 102/1/1 101/1/1
f 107/3/1 101/3/1 106/3/1
f 107/1/1 103/1/1 102/1/1
f 108/1/1 103/1/1 107/1/1
f 109/3/1 104/3/1 103/3/1
f 109/1/1 103/1/1 108/1/1
f 110/2/1 106/2/1 105/2/1
f 110/2/1 105/2/1 100/2/1
f 111/2/1 106/2/1 110/2/1
f 112/1/1 108/1/1 107/1/1
f 112/2/1 106/2/1 111/2/1
f 112/1/1 107/1/1 106/1/1
f 113/1/1 108/1/1 112/1/1
f 114/3/1 109/3/1 108/3/1
f 114/1/1 108/1/1 113/1/1
f 115/3/1 109/3/1 114/3/1
f 116/2/1 113/2/1 112/2/1
f 116/2/1 112/2/1 111/2/1
f 117/2/1 113/2/1 116/2/1
f 118/1/1 115/1/1 114/1/1
f 118/2/1 113/2/1 117/2/1
f 118/1/1 114/1/1 113/1/1
f 119/3/1 109/3/1 115/3/1
f 119/1/1 115/1/1 118/1/1
f 120/3/1 104/3/1 109/3/1
f 120/3/1 109/3/1 119/3/1
f 120/3/1 91/3/1 104/3/1
f 121/2/1 119/2/1 118/2/1
f 121/2/1 118/2/1 117/2/1
f 122/2/1 119/2/1 121/2/1
f 123/1/1 120/1/1 119/1/1
f 123/2/1 119/2/1 122/2/1
f 124/1/1 120/1/1 123/1/1
f 125/2/1 123/2/1 122/2/1
f 125/2/1 124/2/1 123/2/1
f 126/2/1 124/2/1 125/2/1
f 127/2/1 124/2/1 126/2/1
f 128/2/1 124/2/1 127/2/1
f 129/2/2 130/2/2 132/2/2
f 131/2/2 132/2/2 134/2/2
f 132/2/2 130/2/2 135/2/2
f 134/2/2 132/2/2 135/2/2
f 135/2/2 130/2/2 136/2/2
f 133/2/2 134/2/2 138/2/2
f 134/2/2 135/2/2 138/2/2
f 138/2/2 135/2/2 139/2/2
f 135/1/2 136/1/2 140/1/2
f 139/2/2 135/2/2 140/2/2
f 140/1/2 136/1/2 141/1/2
f 141/1/2 136/1/2 142/1/2
f 138/2/2 139/2/2 144/2/2
f 137/2/2 138/2/2 144/2/2
f 144/2/2 139/2/2 145/2/2
f 139/1/2 140/1/2 146/1/2
f 145/2/2 139/2/2 146/2/2
f 140/1/2 141/1/2 146/1/2
f 146/1/2 141/1/2 147/1/2
f 141/3/2 142/3/2 148/3/2
f 147/1/2 141/1/2 148/1/2
f 148/3/2 142/3/2 149/3/2
f 144/2/2 145/2/2 151/2/2
f 143/2/2 144/2/2 151/2/2
f 151/2/2 145/2/2 152/2/2
f 145/1/2 146/1/2 153/1/2
f 152/2/2 145/2/2 153/2/2
f 146/3/2 147/3/2 154/3/2
f 153/1/2 146/1/2 154/1/2
f 148/1/2 149/1/2 155/1/2
f 154/3/2 147/3/2 155/3/2
f 147/1/2 148/1/2 155/1/2
f 155/1/2 149/1/2 156/1/2
f 151/2/2 152/2/2 158/2/2
f 150/2/2 151/2/2 158/2/2
f 158/2/2 152/2/2 159/2/2
f 152/1/2 153/1/2 160/1/2
f 159/2/2 152/2/2 160/2/2
f 153/3/2 154/3/2 161/3/2
f 160/1/2 153/1/2 161/1/2
f 155/3/2 156/3/2 161/3/2
f 154/3/2 155/3/2 161/3/2
f 158/2/2 159/2/2 163/2/2
f 157/2/2 158/2/2 163/2/2
f 163/2/2 159/2/2 164/2/2
f 159/1/2 160/1/2 165/1/2
f 164/2/2 159/2/2 165/2/2
f 160/3/2 161/3/2 166/3/2
f 165/1/2 160/1/2 166/1/2
f 163/2/2 164/2/2 167/2/2
f 162/2/2 163/2/2 167/2/2
f 164/1/2 165/1/2 168/1/2
f 167/2/2 164/2/2 168/2/2
f 165/3/2 166/3/2 169/3/2
f 168/1/2 165/1/2 169/1/2
f 149/3/2 142/3/2 170/3/2
f 156/1/2 149/1/2 170/1/2
f 170/3/2 142/3/2 171/3/2
f 162/2/2 167/2/2 173/2/2
f 161/3/2 156/3/2 174/3/2
f 169/3/2 166/3/2 174/3/2
f 166/3/2 161/3/2 174/3/2
f 168/3/2 169/3/2 174/3/2
f 170/1/2 171/1/2 174/1/2
f 156/1/2 170/1/2 174/1/2
f 174/1/2 171/1/2 175/1/2
f 167/1/2 168/1/2 176/1/2
f 168/3/2 174/3/2 176/3/2
f 174/3/2 175/3/2 176/3/2
f 176/3/2 175/3/2 177/3/2
f 175/1/2 171/1/2 178/1/2
f 171/3/2 142/3/2 178/3/2
f 178/3/2 142/3/2 179/3/2
f 176/1/2 177/1/2 180/1/2
f 167/1/2 176/1/2 180/1/2
f 180/1/2 177/1/2 181/1/2
f 177/3/2 175/3/2 182/3/2
f 181/1/2 177/1/2 182/1/2
f 182/3/2 175/3/2 183/3/2
f 180/3/2 181/3/2 184/3/2
f 181/1/2 182/1/2 184/1/2
f 182/1/2 183/1/2 184/1/2
f 184/1/2 183/1/2 185/1/2
f 183/3/2 175/3/2 186/3/2
f 185/1/2 183/1/2 186/1/2
f 186/3/2 175/3/2 187/3/2
f 184/3/2 185/3/2 188/3/2
f 185/1/2 186/1/2 188/1/2
f 186/1/2 187/1/2 188/1/2
f 188/1/2 187/1/2 189/1/2
f 187/3/2 175/3/2 190/3/2
f 189/1/2 187/1/2 190/1/2
f 178/1/2 179/1/2 191/1/2
f 190/3/2 175/3/2 191/3/2
f 175/1/2 178/1/2 191/1/2
f 191/1/2 179/1/2 192/1/2
f 192/1/2 179/1/2 193/1/2
f 188/3/2 189/3/2 194/3/2
f 189/1/2 190/1/2 194/1/2
f 190/1/2 191/1/2 194/1/2
f 191/1/2 192/1/2 194/1/2
f 194/1/2 192/1/2 195/1/2
f 194/3/2 195/3/2 196/3/2
f 195/1/2 192/1/2 197/1/2
f 196/3/2 195/3/2 197/3/2
f 184/3/2 188/3/2 198/3/2
f 188/3/2 194/3/2 198/3/2
f 194/3/2 196/3/2 198/3/2
f 196/1/2 197/1/2 199/1/2
f 198/3/2 196/3/2 199/3/2
f 197/1/2 192/1/2 200/1/2
f 199/1/2 197/1/2 200/1/2
f 192/3/2 193/3/2 201/3/2
f 200/1/2 192/1/2 201/1/2
f 201/3/2 193/3/2 202/3/2
f 167/1/2 180/1/2 203/1/2
f 180/3/2 184/3/2 203/3/2
f 184/3/2 198/3/2 203/3/2
f 199/1/2 200/1/2 204/1/2
f 203/3/2 198/3/2 204/3/2
f 198/1/2 199/1/2 204/1/2
f 200/3/2 201/3/2 205/3/2
f 204/1/2 200/1/2 205/1/2
f 201/1/2 202/1/2 206/1/2
f 205/3/2 201/3/2 206/3/2
f 167/1/2 203/1/2 207/1/2
f 203/1/2 204/1/2 207/1/2
f 204/3/2 205/3/2 208/3/2
f 207/1/2 204/1/2 208/1/2
f 208/3/2 205/3/2 209/3/2
f 205/1/2 206/1/2 210/1/2
f 209/3/2 205/3/2 210/3/2
f 172/2/2 173/2/2 211/2/2
f 173/2/2 167/2/2 212/2/2
f 211/2/2 173/2/2 212/2/2
f 167/1/2 207/1/2 213/1/2
f 212/2/2 167/2/2 213/2/2
f 208/3/2 209/3/2 214/3/2
f 213/1/2 207/1/2 214/1/2
f 207/3/2 208/3/2 214/3/2
f 214/3/2 209/3/2 215/3/2
f 210/1/2 206/1/2 216/1/2
f 209/1/2 210/1/2 216/1/2
f 206/1/2 202/1/2 217/1/2
f 216/1/2 206/1/2 217/1/2
f 212/2/2 213/2/2 218/2/2
f 213/2/2 214/2/2 218/2/2
f 218/2/2 214/2/2 219/2/2
f 214/1/2 215/1/2 220/1/2
f 219/2/2 214/2/2 220/2/2
f 215/3/2 209/3/2 221/3/2
f 220/1/2 215/1/2 221/1/2
f 221/3/2 209/3/2 222/3/2
f 222/3/2 209/3/2 223/3/2
f 209/1/2 216/1/2 224/1/2
f 223/3/2 209/3/2 224/3/2
f 217/1/2 202/1/2 225/1/2
f 216/3/2 217/3/2 225/3/2
f 225/1/2 202/1/2 226/1/2
f 219/2/2 220/2/2 227/2/2
f 220/2/2 221/2/2 227/2/2
f 227/2/2 221/2/2 228/2/2
f 222/3/2 223/3/2 229/3/2
f 223/1/2 224/1/2 230/1/2
f 229/3/2 223/3/2 230/3/2
f 224/1/2 216/1/2 231/1/2
f 230/1/2 224/1/2 231/1/2
f 225/3/2 226/3/2 232/3/2
f 231/1/2 216/1/2 232/1/2
f 216/3/2 225/3/2 232/3/2
f 228/2/2 221/2/2 233/2/2
f 221/1/2 222/1/2 233/1/2
f 222/3/2 229/3/2 234/3/2
f 233/1/2 222/1/2 234/1/2
f 229/1/2 230/1/2 235/1/2
f 234/3/2 229/3/2 235/3/2
f 230/1/2 231/1/2 235/1/2
f 235/1/2 231/1/2 236/1/2
f 231/3/2 232/3/2 237/3/2
f 236/1/2 231/1/2 237/1/2
f 233/2/2 234/2/2 238/2/2
f 228/2/2 233/2/2 238/2/2
f 238/2/2 234/2/2 239/2/2
f 235/1/2 236/1/2 240/1/2
f 239/2/2 234/2/2 240/2/2
f 234/1/2 235/1/2 240/1/2
f 240/1/2 236/1/2 241/1/2
f 236/3/2 237/3/2 242/3/2
f 241/1/2 236/1/2 242/1/2
f 242/3/2 237/3/2 243/3/2
f 240/2/2 241/2/2 244/2/2
f 239/2/2 240/2/2 244/2/2
f 244/2/2 241/2/2 245/2/2
f 242/1/2 243/1/2 246/1/2
f 245/2/2 241/2/2 246/2/2
f 241/1/2 242/1/2 246/1/2
f 243/3/2 237/3/2 247/3/2
f 246/1/2 243/1/2 247/1/2
f 232/3/2 226/3/2 248/3/2
f 247/3/2 237/3/2 248/3/2
f 237/3/2 232/3/2 248/3/2
f 246/2/2 247/2/2 249/2/2
f 245/2/2 246/2/2 249/2/2
f 249/2/2 247/2/2 250/2/2
f 247/1/2 248/1/2 251/1/2
f 250/2/2 247/2/2 251/2/2
f 251/1/2 248/1/2 252/1/2
f 250/2/2 251/2/2 253/2/2
f 251/2/2 252/2/2 253/2/2
f 253/2/2 252/2/2 254/2/2
f 254/2/2 252/2/2 255/2/2
f 255/2/2 252/2/2 256/2/2
f 259/2/3 258/2/3 257/2/3
f 260/2/3 258/2/3 259/2/3
f 265/2/3 262/2/3 261/2/3
f 266/2/3 262/2/3 265/2/3
f 267/2/3 264/2/3 263/2/3
f 268/2/3 264/2/3 267/2/3
f 273/2/3 270/2/3 269/2/3
f 274/2/3 270/2/3 273/2/3
f 275/2/3 272/2/3 271/2/3
f 276/2/3 272/2/3 275/2/3
f 281/2/3 278/2/3 277/2/3
f 282/2/3 278/2/3 281/2/3
f 283/2/3 280/2/3 279/2/3
f 284/2/3 280/2/3 283/2/3
f 289/2/3 286/2/3 285/2/3
f 290/2/3 286/2/3 289/2/3
f 291/2/3 288/2/3 287/2/3
f 292/2/3 288/2/3 291/2/3
f 297/2/3 294/2/3 293/2/3
f 298/2/3 294/2/3 297/2/3
f 299/2/3 296/2/3 295/2/3
f 300/2/3 296/2/3 299/2/3
f 305/2/3 302/2/3 301/2/3
f 306/2/3 302/2/3 305/2/3
f 307/2/3 304/2/3 303/2/3
f 308/2/3 304/2/3 307/2/3
f 311/2/3 310/2/3 309/2/3
f 312/2/3 310/2/3 311/2/3
f 317/2/3 314/2/3 313/2/3
f 318/2/3 314/2/3 317/2/3
f 319/2/3 316/2/3 315/2/3
f 320/2/3 316/2/3 319/2/3
f 322/1/4 323/1/4 331/1/4
f 331/1/4 323/1/4 332/1/4
f 323/3/4 324/3/4 333/3/4
f 332/1/4 323/1/4 333/1/4
f 333/3/4 324/3/4 334/3/4
f 326/1/4 327/1/4 335/1/4
f 335/1/4 327/1/4 336/1/4
f 327/3/4 328/3/4 337/3/4
f 336/1/4 327/1/4 337/1/4
f 328/1/4 329/1/4 338/1/4
f 337/3/4 328/3/4 338/3/4
f 331/3/4 332/3/4 339/3/4
f 332/1/4 333/1/4 339/1/4
f 333/1/4 334/1/4 339/1/4
f 339/1/4 334/1/4 340/1/4
f 334/3/4 324/3/4 341/3/4
f 340/1/4 334/1/4 341/1/4
f 341/3/4 324/3/4 342/3/4
f 335/3/4 336/3/4 343/3/4
f 336/1/4 337/1/4 343/1/4
f 337/1/4 338/1/4 343/1/4
f 343/1/4 338/1/4 344/1/4
f 344/1/4 338/1/4 345/1/4
f 345/1/4 338/1/4 346/1/4
f 339/3/4 340/3/4 347/3/4
f 341/1/4 342/1/4 347/1/4
f 340/1/4 341/1/4 347/1/4
f 347/1/4 342/1/4 348/1/4
f 342/3/4 324/3/4 349/3/4
f 348/1/4 342/1/4 349/1/4
f 324/1/4 325/1/4 350/1/4
f 349/3/4 324/3/4 350/3/4
f 326/1/4 335/1/4 351/1/4
f 335/3/4 343/3/4 351/3/4
f 343/3/4 344/3/4 351/3/4
f 344/1/4 345/1/4 352/1/4
f 351/3/4 344/3/4 352/3/4
f 352/1/4 345/1/4 353/1/4
f 345/3/4 346/3/4 354/3/4
f 353/1/4 345/1/4 354/1/4
f 346/1/4 338/1/4 355/1/4
f 354/3/4 346/3/4 355/3/4
f 338/1/4 329/1/4 356/1/4
f 355/1/4 338/1/4 356/1/4
f 321/2/4 322/2/4 357/2/4
f 322/1/4 331/1/4 358/1/4
f 357/2/4 322/2/4 358/2/4
f 347/3/4 348/3/4 359/3/4
f 358/1/4 331/1/4 359/1/4
f 331/3/4 339/3/4 359/3/4
f 339/3/4 347/3/4 359/3/4
f 348/1/4 349/1/4 360/1/4
f 359/3/4 348/3/4 360/3/4
f 349/1/4 350/1/4 360/1/4
f 325/3/4 326/3/4 361/3/4
f 360/1/4 350/1/4 361/1/4
f 350/1/4 325/1/4 361/1/4
f 352/1/4 353/1/4 362/1/4
f 361/3/4 326/3/4 362/3/4
f 326/1/4 351/1/4 362/1/4
f 351/1/4 352/1/4 362/1/4
f 354/3/4 355/3/4 363/3/4
f 362/1/4 353/1/4 363/1/4
f 353/3/4 354/3/4 363/3/4
f 355/3/4 356/3/4 363/3/4
f 356/1/4 329/1/4 364/1/4
f 363/3/4 356/3/4 364/3/4
f 329/2/4 330/2/4 365/2/4
f 364/1/4 329/1/4 365/1/4
f 365/2/4 330/2/4 366/2/4
f 369/2/5 368/2/5 367/2/5
f 370/2/5 368/2/5 369/2/5
f 373/2/5 372/2/5 371/2/5
f 374/2/5 372/2/5 373/2/5
f 377/2/5 376/2/5 375/2/5
f 378/2/5 376/2/5 377/2/5
f 381/2/5 380/2/5 379/2/5
f 382/2/5 380/2/5 381/2/5
f 385/2/5 384/2/5 383/2/5
f 386/2/5 384/2/5 385/2/5
f 389/2/5 388/2/5 387/2/5
f 390/2/5 388/2/5 389/2/5
f 393/2/5 392/2/5 391/2/5
f 394/2/5 392/2/5 393/2/5
f 397/2/5 396/2/5 395/2/5
f 398/2/5 396/2/5 397/2/5
f 401/2/5 400/2/5 399/2/5
f 402/2/5 400/2/5 401/2/5
f 403/2/6 404/2/6 405/2/6
f 405/2/6 404/2/6 406/2/6
f 407/2/6 408/2/6 409/2/6
f 409/2/6 408/2/6 410/2/6
f 411/2/6 412/2/6 413/2/6
f 413/2/6 412/2/6 414/2/6
f 415/2/6 416/2/6 417/2/6
f 417/2/6 416/2/6 418/2/6
f 419/2/6 420/2/6 421/2/6
f 421/2/6 420/2/6 422/2/6
f 423/2/6 424/2/6 425/2/6
f 425/2/6 424/2/6 426/2/6
f 427/2/6 428/2/6 429/2/6
f 429/2/6 428/2/6 430/2/6
f 431/2/6 432/2/6 433/2/6
f 433/2/6 432/2/6 434/2/6
