# MagicaVoxel @ Ephtracy

# group
o 

# material
mtllib Stravberry.mtl
usemtl palette

# normals
vn -1 0 0
vn 1 0 0
vn 0 0 1
vn 0 0 -1
vn 0 -1 0
vn 0 1 0

# texcoords
vt 0.841797 0.5
vt 0.884766 0.5
vt 0.994141 0.5

# verts
v 1.6 2.2 -1.6
v 1.6 2.2 -2.1
v 1.6 2.3 -1.9
v 1.6 2.3 -2
v 1.6 2.4 -1.9
v 1.6 2.4 -2
v 1.6 2.5 -1.5
v 1.6 2.5 -1.6
v 1.6 2.5 -1.7
v 1.6 2.5 -1.8
v 1.6 2.5 -2.1
v 1.6 2.5 -2.2
v 1.6 2.6 -1.7
v 1.6 2.6 -1.8
v 1.6 2.6 -1.9
v 1.6 2.6 -2
v 1.6 2.7 -1.9
v 1.6 2.7 -2
v 1.6 2.8 -1.5
v 1.6 2.8 -2.2
v 1.7 2.1 -1.6
v 1.7 2.1 -2.1
v 1.7 2.2 -1.5
v 1.7 2.2 -1.6
v 1.7 2.2 -2.1
v 1.7 2.2 -2.2
v 1.7 2.5 -1.5
v 1.7 2.5 -1.6
v 1.7 2.5 -2.1
v 1.7 2.5 -2.2
v 1.7 2.8 -1.6
v 1.7 2.8 -2.1
v 1.7 2.9 -1.6
v 1.7 2.9 -1.7
v 1.7 2.9 -1.8
v 1.7 2.9 -1.9
v 1.7 2.9 -2
v 1.7 2.9 -2.1
v 1.7 3 -1.6
v 1.7 3 -1.7
v 1.7 3 -1.8
v 1.7 3 -1.9
v 1.7 3 -2
v 1.7 3 -2.1
v 1.8 2.9 -1.7
v 1.8 2.9 -1.8
v 1.8 2.9 -1.9
v 1.8 2.9 -2
v 1.8 3 -1.7
v 1.8 3 -1.8
v 1.8 3 -1.9
v 1.8 3 -2
v 1.9 2 -1.8
v 1.9 2 -1.9
v 1.9 2.1 -1.8
v 1.9 2.1 -1.9
v 1.9 2.9 -1.6
v 1.9 2.9 -1.7
v 1.9 2.9 -2
v 1.9 2.9 -2.1
v 1.9 3 -1.6
v 1.9 3 -1.7
v 1.9 3 -1.8
v 1.9 3 -1.9
v 1.9 3 -2
v 1.9 3 -2.1
v 1.9 3.2 -1.8
v 1.9 3.2 -1.9
v 2.1 2.9 -1.6
v 2.1 2.9 -1.7
v 2.1 2.9 -2
v 2.1 2.9 -2.1
v 2.1 3 -1.6
v 2.1 3 -1.7
v 2.1 3 -2
v 2.1 3 -2.1
v 1.8 2.9 -1.6
v 1.8 2.9 -1.7
v 1.8 2.9 -2
v 1.8 2.9 -2.1
v 1.8 3 -1.6
v 1.8 3 -1.7
v 1.8 3 -2
v 1.8 3 -2.1
v 2 2 -1.8
v 2 2 -1.9
v 2 2.1 -1.8
v 2 2.1 -1.9
v 2 2.9 -1.6
v 2 2.9 -1.7
v 2 2.9 -2
v 2 2.9 -2.1
v 2 3 -1.6
v 2 3 -1.7
v 2 3 -1.8
v 2 3 -1.9
v 2 3 -2
v 2 3 -2.1
v 2 3.2 -1.8
v 2 3.2 -1.9
v 2.1 2.9 -1.7
v 2.1 2.9 -1.8
v 2.1 2.9 -1.9
v 2.1 2.9 -2
v 2.1 3 -1.7
v 2.1 3 -1.8
v 2.1 3 -1.9
v 2.1 3 -2
v 2.2 2.1 -1.6
v 2.2 2.1 -1.8
v 2.2 2.1 -1.9
v 2.2 2.1 -2.1
v 2.2 2.2 -1.5
v 2.2 2.2 -1.6
v 2.2 2.2 -1.8
v 2.2 2.2 -1.9
v 2.2 2.2 -2.1
v 2.2 2.2 -2.2
v 2.2 2.5 -1.5
v 2.2 2.5 -1.6
v 2.2 2.5 -2.1
v 2.2 2.5 -2.2
v 2.2 2.8 -1.6
v 2.2 2.8 -2.1
v 2.2 2.9 -1.6
v 2.2 2.9 -1.7
v 2.2 2.9 -1.8
v 2.2 2.9 -1.9
v 2.2 2.9 -2
v 2.2 2.9 -2.1
v 2.2 3 -1.6
v 2.2 3 -1.7
v 2.2 3 -1.8
v 2.2 3 -1.9
v 2.2 3 -2
v 2.2 3 -2.1
v 2.3 2.2 -1.6
v 2.3 2.2 -2.1
v 2.3 2.3 -1.9
v 2.3 2.3 -2
v 2.3 2.4 -1.7
v 2.3 2.4 -1.8
v 2.3 2.4 -1.9
v 2.3 2.4 -2
v 2.3 2.5 -1.5
v 2.3 2.5 -1.6
v 2.3 2.5 -1.7
v 2.3 2.5 -1.8
v 2.3 2.5 -2.1
v 2.3 2.5 -2.2
v 2.3 2.6 -1.8
v 2.3 2.6 -1.9
v 2.3 2.7 -1.8
v 2.3 2.7 -1.9
v 2.3 2.7 -2.1
v 2.3 2.7 -2.2
v 2.3 2.8 -1.5
v 2.3 2.8 -2.1
v 2.3 2.8 -2.2
v 1.6 2.5 -1.5
v 1.6 2.8 -1.5
v 1.7 2.2 -1.5
v 1.7 2.5 -1.5
v 1.7 2.6 -1.5
v 1.7 2.7 -1.5
v 1.8 2.2 -1.5
v 1.8 2.3 -1.5
v 1.8 2.6 -1.5
v 1.8 2.7 -1.5
v 1.9 2.2 -1.5
v 1.9 2.3 -1.5
v 2 2.4 -1.5
v 2 2.5 -1.5
v 2.1 2.4 -1.5
v 2.1 2.5 -1.5
v 2.1 2.6 -1.5
v 2.1 2.7 -1.5
v 2.2 2.2 -1.5
v 2.2 2.5 -1.5
v 2.2 2.6 -1.5
v 2.2 2.7 -1.5
v 2.3 2.5 -1.5
v 2.3 2.8 -1.5
v 1.6 2.2 -1.6
v 1.6 2.5 -1.6
v 1.7 2.1 -1.6
v 1.7 2.2 -1.6
v 1.7 2.5 -1.6
v 1.7 2.8 -1.6
v 1.7 2.9 -1.6
v 1.7 3 -1.6
v 1.8 2.2 -1.6
v 1.8 2.9 -1.6
v 1.8 3 -1.6
v 1.9 2.1 -1.6
v 1.9 2.2 -1.6
v 1.9 2.9 -1.6
v 1.9 3 -1.6
v 2 2.1 -1.6
v 2 2.2 -1.6
v 2 2.9 -1.6
v 2 3 -1.6
v 2.1 2.9 -1.6
v 2.1 3 -1.6
v 2.2 2.1 -1.6
v 2.2 2.2 -1.6
v 2.2 2.5 -1.6
v 2.2 2.8 -1.6
v 2.2 2.9 -1.6
v 2.2 3 -1.6
v 2.3 2.2 -1.6
v 2.3 2.5 -1.6
v 1.8 2.9 -1.7
v 1.8 3 -1.7
v 1.9 2.9 -1.7
v 1.9 3 -1.7
v 2 2.9 -1.7
v 2 3 -1.7
v 2.1 2.9 -1.7
v 2.1 3 -1.7
v 1.7 2.9 -1.8
v 1.7 3 -1.8
v 1.8 2.9 -1.8
v 1.8 3 -1.8
v 1.9 2 -1.8
v 1.9 2.1 -1.8
v 1.9 3 -1.8
v 1.9 3.2 -1.8
v 2 2 -1.8
v 2 2.1 -1.8
v 2 3 -1.8
v 2 3.2 -1.8
v 2.1 2.9 -1.8
v 2.1 3 -1.8
v 2.2 2.9 -1.8
v 2.2 3 -1.8
v 1.7 2.9 -2
v 1.7 3 -2
v 1.8 2.9 -2
v 1.8 3 -2
v 2.1 2.9 -2
v 2.1 3 -2
v 2.2 2.9 -2
v 2.2 3 -2
v 1.7 2.9 -1.7
v 1.7 3 -1.7
v 1.8 2.9 -1.7
v 1.8 3 -1.7
v 2.1 2.9 -1.7
v 2.1 3 -1.7
v 2.2 2.9 -1.7
v 2.2 3 -1.7
v 1.7 2.9 -1.9
v 1.7 3 -1.9
v 1.8 2.9 -1.9
v 1.8 3 -1.9
v 1.9 2 -1.9
v 1.9 2.1 -1.9
v 1.9 3 -1.9
v 1.9 3.2 -1.9
v 2 2 -1.9
v 2 2.1 -1.9
v 2 3 -1.9
v 2 3.2 -1.9
v 2.1 2.9 -1.9
v 2.1 3 -1.9
v 2.2 2.9 -1.9
v 2.2 3 -1.9
v 1.8 2.9 -2
v 1.8 3 -2
v 1.9 2.9 -2
v 1.9 3 -2
v 2 2.9 -2
v 2 3 -2
v 2.1 2.9 -2
v 2.1 3 -2
v 1.6 2.2 -2.1
v 1.6 2.5 -2.1
v 1.7 2.1 -2.1
v 1.7 2.2 -2.1
v 1.7 2.5 -2.1
v 1.7 2.8 -2.1
v 1.7 2.9 -2.1
v 1.7 3 -2.1
v 1.8 2.1 -2.1
v 1.8 2.2 -2.1
v 1.8 2.9 -2.1
v 1.8 3 -2.1
v 1.9 2.1 -2.1
v 1.9 2.2 -2.1
v 1.9 2.9 -2.1
v 1.9 3 -2.1
v 2 2.9 -2.1
v 2 3 -2.1
v 2.1 2.9 -2.1
v 2.1 3 -2.1
v 2.2 2.1 -2.1
v 2.2 2.2 -2.1
v 2.2 2.5 -2.1
v 2.2 2.8 -2.1
v 2.2 2.9 -2.1
v 2.2 3 -2.1
v 2.3 2.2 -2.1
v 2.3 2.5 -2.1
v 1.6 2.5 -2.2
v 1.6 2.8 -2.2
v 1.7 2.2 -2.2
v 1.7 2.5 -2.2
v 1.8 2.6 -2.2
v 1.8 2.7 -2.2
v 1.9 2.6 -2.2
v 1.9 2.7 -2.2
v 2 2.4 -2.2
v 2 2.5 -2.2
v 2.1 2.4 -2.2
v 2.1 2.5 -2.2
v 2.2 2.2 -2.2
v 2.2 2.5 -2.2
v 2.2 2.7 -2.2
v 2.2 2.8 -2.2
v 2.3 2.5 -2.2
v 2.3 2.7 -2.2
v 2.3 2.8 -2.2
v 1.9 2 -1.8
v 2 2 -1.8
v 1.9 2 -1.9
v 2 2 -1.9
v 1.7 2.1 -1.6
v 1.9 2.1 -1.6
v 2 2.1 -1.6
v 2.2 2.1 -1.6
v 1.9 2.1 -1.7
v 2 2.1 -1.7
v 1.9 2.1 -1.8
v 2 2.1 -1.8
v 2.1 2.1 -1.8
v 2.2 2.1 -1.8
v 1.9 2.1 -1.9
v 2 2.1 -1.9
v 2.1 2.1 -1.9
v 2.2 2.1 -1.9
v 1.8 2.1 -2
v 1.9 2.1 -2
v 1.7 2.1 -2.1
v 1.8 2.1 -2.1
v 1.9 2.1 -2.1
v 2.2 2.1 -2.1
v 1.7 2.2 -1.5
v 1.8 2.2 -1.5
v 1.9 2.2 -1.5
v 2.2 2.2 -1.5
v 1.6 2.2 -1.6
v 1.7 2.2 -1.6
v 1.8 2.2 -1.6
v 1.9 2.2 -1.6
v 2 2.2 -1.6
v 2.2 2.2 -1.6
v 2.3 2.2 -1.6
v 2.2 2.2 -1.8
v 2.2 2.2 -1.9
v 1.6 2.2 -2.1
v 1.7 2.2 -2.1
v 1.8 2.2 -2.1
v 1.9 2.2 -2.1
v 2.2 2.2 -2.1
v 2.3 2.2 -2.1
v 1.7 2.2 -2.2
v 2.2 2.2 -2.2
v 1.6 2.5 -1.5
v 1.7 2.5 -1.5
v 2.2 2.5 -1.5
v 2.3 2.5 -1.5
v 1.6 2.5 -1.6
v 1.7 2.5 -1.6
v 2.2 2.5 -1.6
v 2.3 2.5 -1.6
v 1.6 2.5 -2.1
v 1.7 2.5 -2.1
v 2.2 2.5 -2.1
v 2.3 2.5 -2.1
v 1.6 2.5 -2.2
v 1.7 2.5 -2.2
v 2.2 2.5 -2.2
v 2.3 2.5 -2.2
v 1.6 2.8 -1.5
v 2.3 2.8 -1.5
v 1.7 2.8 -1.6
v 2.2 2.8 -1.6
v 1.7 2.8 -2.1
v 2.2 2.8 -2.1
v 2.3 2.8 -2.1
v 1.6 2.8 -2.2
v 2.2 2.8 -2.2
v 2.3 2.8 -2.2
v 1.8 2.9 -1.6
v 1.9 2.9 -1.6
v 2 2.9 -1.6
v 2.1 2.9 -1.6
v 1.7 2.9 -1.7
v 1.8 2.9 -1.7
v 1.9 2.9 -1.7
v 2 2.9 -1.7
v 2.1 2.9 -1.7
v 2.2 2.9 -1.7
v 1.7 2.9 -1.8
v 1.8 2.9 -1.8
v 2.1 2.9 -1.8
v 2.2 2.9 -1.8
v 1.7 2.9 -1.9
v 1.8 2.9 -1.9
v 2.1 2.9 -1.9
v 2.2 2.9 -1.9
v 1.7 2.9 -2
v 1.8 2.9 -2
v 1.9 2.9 -2
v 2 2.9 -2
v 2.1 2.9 -2
v 2.2 2.9 -2
v 1.8 2.9 -2.1
v 1.9 2.9 -2.1
v 2 2.9 -2.1
v 2.1 2.9 -2.1
v 1.7 3 -1.6
v 1.8 3 -1.6
v 1.9 3 -1.6
v 2 3 -1.6
v 2.1 3 -1.6
v 2.2 3 -1.6
v 1.7 3 -1.7
v 1.8 3 -1.7
v 1.9 3 -1.7
v 2 3 -1.7
v 2.1 3 -1.7
v 2.2 3 -1.7
v 1.7 3 -1.8
v 1.8 3 -1.8
v 1.9 3 -1.8
v 2 3 -1.8
v 2.1 3 -1.8
v 2.2 3 -1.8
v 1.7 3 -1.9
v 1.8 3 -1.9
v 1.9 3 -1.9
v 2 3 -1.9
v 2.1 3 -1.9
v 2.2 3 -1.9
v 1.7 3 -2
v 1.8 3 -2
v 1.9 3 -2
v 2 3 -2
v 2.1 3 -2
v 2.2 3 -2
v 1.7 3 -2.1
v 1.8 3 -2.1
v 1.9 3 -2.1
v 2 3 -2.1
v 2.1 3 -2.1
v 2.2 3 -2.1
v 1.9 3.2 -1.8
v 2 3.2 -1.8
v 1.9 3.2 -1.9
v 2 3.2 -1.9

# faces
f 3/1/1 2/1/1 1/1/1
f 4/1/1 2/1/1 3/1/1
f 5/1/1 3/1/1 1/1/1
f 5/3/1 4/3/1 3/3/1
f 6/1/1 2/1/1 4/1/1
f 6/3/1 4/3/1 5/3/1
f 8/1/1 5/1/1 1/1/1
f 8/1/1 6/1/1 5/1/1
f 9/1/1 6/1/1 8/1/1
f 10/1/1 6/1/1 9/1/1
f 11/1/1 2/1/1 6/1/1
f 11/1/1 6/1/1 10/1/1
f 13/3/1 10/3/1 9/3/1
f 13/1/1 8/1/1 7/1/1
f 13/1/1 9/1/1 8/1/1
f 14/1/1 12/1/1 11/1/1
f 14/3/1 10/3/1 13/3/1
f 14/1/1 11/1/1 10/1/1
f 15/1/1 12/1/1 14/1/1
f 16/1/1 12/1/1 15/1/1
f 17/1/1 14/1/1 13/1/1
f 17/1/1 15/1/1 14/1/1
f 17/3/1 16/3/1 15/3/1
f 18/1/1 12/1/1 16/1/1
f 18/3/1 16/3/1 17/3/1
f 19/1/1 13/1/1 7/1/1
f 19/1/1 17/1/1 13/1/1
f 19/1/1 18/1/1 17/1/1
f 20/1/1 12/1/1 18/1/1
f 20/1/1 18/1/1 19/1/1
f 24/1/1 22/1/1 21/1/1
f 25/1/1 22/1/1 24/1/1
f 27/1/1 24/1/1 23/1/1
f 28/1/1 24/1/1 27/1/1
f 29/1/1 26/1/1 25/1/1
f 30/1/1 26/1/1 29/1/1
f 33/1/1 32/1/1 31/1/1
f 34/1/1 32/1/1 33/1/1
f 35/1/1 32/1/1 34/1/1
f 36/1/1 32/1/1 35/1/1
f 37/1/1 32/1/1 36/1/1
f 38/1/1 32/1/1 37/1/1
f 39/2/1 34/2/1 33/2/1
f 40/2/1 34/2/1 39/2/1
f 41/2/1 36/2/1 35/2/1
f 42/2/1 36/2/1 41/2/1
f 43/2/1 38/2/1 37/2/1
f 44/2/1 38/2/1 43/2/1
f 49/2/1 46/2/1 45/2/1
f 50/2/1 46/2/1 49/2/1
f 51/2/1 48/2/1 47/2/1
f 52/2/1 48/2/1 51/2/1
f 55/1/1 54/1/1 53/1/1
f 56/1/1 54/1/1 55/1/1
f 61/2/1 58/2/1 57/2/1
f 62/2/1 58/2/1 61/2/1
f 65/2/1 60/2/1 59/2/1
f 66/2/1 60/2/1 65/2/1
f 67/2/1 64/2/1 63/2/1
f 68/2/1 64/2/1 67/2/1
f 73/2/1 70/2/1 69/2/1
f 74/2/1 70/2/1 73/2/1
f 75/2/1 72/2/1 71/2/1
f 76/2/1 72/2/1 75/2/1
f 77/2/2 78/2/2 81/2/2
f 81/2/2 78/2/2 82/2/2
f 79/2/2 80/2/2 83/2/2
f 83/2/2 80/2/2 84/2/2
f 85/1/2 86/1/2 87/1/2
f 87/1/2 86/1/2 88/1/2
f 89/2/2 90/2/2 93/2/2
f 93/2/2 90/2/2 94/2/2
f 91/2/2 92/2/2 97/2/2
f 97/2/2 92/2/2 98/2/2
f 95/2/2 96/2/2 99/2/2
f 99/2/2 96/2/2 100/2/2
f 101/2/2 102/2/2 105/2/2
f 105/2/2 102/2/2 106/2/2
f 103/2/2 104/2/2 107/2/2
f 107/2/2 104/2/2 108/2/2
f 109/1/2 110/1/2 114/1/2
f 110/3/2 111/3/2 115/3/2
f 114/1/2 110/1/2 115/1/2
f 111/1/2 112/1/2 116/1/2
f 115/3/2 111/3/2 116/3/2
f 116/1/2 112/1/2 117/1/2
f 113/1/2 114/1/2 119/1/2
f 119/1/2 114/1/2 120/1/2
f 117/1/2 118/1/2 121/1/2
f 121/1/2 118/1/2 122/1/2
f 123/1/2 124/1/2 125/1/2
f 125/1/2 124/1/2 126/1/2
f 126/1/2 124/1/2 127/1/2
f 127/1/2 124/1/2 128/1/2
f 128/1/2 124/1/2 129/1/2
f 129/1/2 124/1/2 130/1/2
f 125/2/2 126/2/2 131/2/2
f 131/2/2 126/2/2 132/2/2
f 127/2/2 128/2/2 133/2/2
f 133/2/2 128/2/2 134/2/2
f 129/2/2 130/2/2 135/2/2
f 135/2/2 130/2/2 136/2/2
f 137/1/2 138/1/2 139/1/2
f 139/1/2 138/1/2 140/1/2
f 137/1/2 139/1/2 141/1/2
f 141/1/2 139/1/2 142/1/2
f 139/3/2 140/3/2 143/3/2
f 142/1/2 139/1/2 143/1/2
f 140/1/2 138/1/2 144/1/2
f 143/3/2 140/3/2 144/3/2
f 137/1/2 141/1/2 146/1/2
f 141/3/2 142/3/2 147/3/2
f 146/1/2 141/1/2 147/1/2
f 142/1/2 143/1/2 148/1/2
f 147/3/2 142/3/2 148/3/2
f 143/1/2 144/1/2 148/1/2
f 144/1/2 138/1/2 149/1/2
f 148/1/2 144/1/2 149/1/2
f 146/1/2 147/1/2 151/1/2
f 149/1/2 150/1/2 151/1/2
f 148/1/2 149/1/2 151/1/2
f 145/1/2 146/1/2 151/1/2
f 147/1/2 148/1/2 151/1/2
f 151/1/2 150/1/2 152/1/2
f 145/1/2 151/1/2 153/1/2
f 151/3/2 152/3/2 153/3/2
f 152/1/2 150/1/2 154/1/2
f 153/3/2 152/3/2 154/3/2
f 154/1/2 150/1/2 155/1/2
f 155/1/2 150/1/2 156/1/2
f 145/1/2 153/1/2 157/1/2
f 153/1/2 154/1/2 157/1/2
f 154/1/2 155/1/2 157/1/2
f 155/3/2 156/3/2 158/3/2
f 157/1/2 155/1/2 158/1/2
f 158/3/2 156/3/2 159/3/2
f 163/1/3 161/1/3 160/1/3
f 164/1/3 161/1/3 163/1/3
f 165/1/3 161/1/3 164/1/3
f 166/1/3 163/1/3 162/1/3
f 166/1/3 164/1/3 163/1/3
f 167/1/3 164/1/3 166/1/3
f 168/3/3 165/3/3 164/3/3
f 168/1/3 164/1/3 167/1/3
f 169/1/3 161/1/3 165/1/3
f 169/3/3 165/3/3 168/3/3
f 170/3/3 167/3/3 166/3/3
f 171/1/3 168/1/3 167/1/3
f 171/3/3 167/3/3 170/3/3
f 171/1/3 169/1/3 168/1/3
f 172/1/3 171/1/3 170/1/3
f 172/1/3 169/1/3 171/1/3
f 173/1/3 169/1/3 172/1/3
f 174/1/3 172/1/3 170/1/3
f 174/3/3 173/3/3 172/3/3
f 175/1/3 169/1/3 173/1/3
f 175/3/3 173/3/3 174/3/3
f 176/1/3 169/1/3 175/1/3
f 177/1/3 161/1/3 169/1/3
f 177/1/3 169/1/3 176/1/3
f 178/1/3 176/1/3 175/1/3
f 178/1/3 174/1/3 170/1/3
f 178/1/3 175/1/3 174/1/3
f 179/1/3 176/1/3 178/1/3
f 180/3/3 177/3/3 176/3/3
f 180/1/3 176/1/3 179/1/3
f 181/1/3 161/1/3 177/1/3
f 181/3/3 177/3/3 180/3/3
f 182/1/3 180/1/3 179/1/3
f 182/1/3 181/1/3 180/1/3
f 183/1/3 161/1/3 181/1/3
f 183/1/3 181/1/3 182/1/3
f 187/1/3 185/1/3 184/1/3
f 188/1/3 185/1/3 187/1/3
f 192/1/3 187/1/3 186/1/3
f 193/2/3 191/2/3 190/2/3
f 193/1/3 190/1/3 189/1/3
f 194/2/3 191/2/3 193/2/3
f 195/1/3 192/1/3 186/1/3
f 196/1/3 192/1/3 195/1/3
f 197/1/3 193/1/3 189/1/3
f 199/3/3 196/3/3 195/3/3
f 200/3/3 196/3/3 199/3/3
f 201/2/3 198/2/3 197/2/3
f 201/1/3 197/1/3 189/1/3
f 202/2/3 198/2/3 201/2/3
f 203/1/3 201/1/3 189/1/3
f 205/1/3 200/1/3 199/1/3
f 206/1/3 200/1/3 205/1/3
f 208/1/3 203/1/3 189/1/3
f 209/2/3 204/2/3 203/2/3
f 209/1/3 203/1/3 208/1/3
f 210/2/3 204/2/3 209/2/3
f 211/1/3 207/1/3 206/1/3
f 212/1/3 207/1/3 211/1/3
f 215/2/3 214/2/3 213/2/3
f 216/2/3 214/2/3 215/2/3
f 219/2/3 218/2/3 217/2/3
f 220/2/3 218/2/3 219/2/3
f 223/2/3 222/2/3 221/2/3
f 224/2/3 222/2/3 223/2/3
f 229/1/3 226/1/3 225/1/3
f 230/1/3 226/1/3 229/1/3
f 231/2/3 228/2/3 227/2/3
f 232/2/3 228/2/3 231/2/3
f 235/2/3 234/2/3 233/2/3
f 236/2/3 234/2/3 235/2/3
f 239/2/3 238/2/3 237/2/3
f 240/2/3 238/2/3 239/2/3
f 243/2/3 242/2/3 241/2/3
f 244/2/3 242/2/3 243/2/3
f 245/2/4 246/2/4 247/2/4
f 247/2/4 246/2/4 248/2/4
f 249/2/4 250/2/4 251/2/4
f 251/2/4 250/2/4 252/2/4
f 253/2/4 254/2/4 255/2/4
f 255/2/4 254/2/4 256/2/4
f 257/1/4 258/1/4 261/1/4
f 261/1/4 258/1/4 262/1/4
f 259/2/4 260/2/4 263/2/4
f 263/2/4 260/2/4 264/2/4
f 265/2/4 266/2/4 267/2/4
f 267/2/4 266/2/4 268/2/4
f 269/2/4 270/2/4 271/2/4
f 271/2/4 270/2/4 272/2/4
f 273/2/4 274/2/4 275/2/4
f 275/2/4 274/2/4 276/2/4
f 277/1/4 278/1/4 280/1/4
f 280/1/4 278/1/4 281/1/4
f 279/1/4 280/1/4 285/1/4
f 285/1/4 280/1/4 286/1/4
f 283/2/4 284/2/4 287/2/4
f 282/1/4 283/1/4 287/1/4
f 287/2/4 284/2/4 288/2/4
f 285/3/4 286/3/4 289/3/4
f 289/3/4 286/3/4 290/3/4
f 282/1/4 287/1/4 291/1/4
f 282/1/4 291/1/4 293/1/4
f 291/2/4 292/2/4 293/2/4
f 293/2/4 292/2/4 294/2/4
f 282/1/4 293/1/4 295/1/4
f 289/1/4 290/1/4 297/1/4
f 297/1/4 290/1/4 298/1/4
f 282/1/4 295/1/4 300/1/4
f 295/2/4 296/2/4 301/2/4
f 300/1/4 295/1/4 301/1/4
f 301/2/4 296/2/4 302/2/4
f 298/1/4 299/1/4 303/1/4
f 303/1/4 299/1/4 304/1/4
f 305/1/4 306/1/4 308/1/4
f 308/1/4 306/1/4 309/1/4
f 307/1/4 308/1/4 309/1/4
f 309/1/4 306/1/4 310/1/4
f 307/1/4 309/1/4 311/1/4
f 309/3/4 310/3/4 311/3/4
f 310/1/4 306/1/4 312/1/4
f 311/3/4 310/3/4 312/3/4
f 307/1/4 311/1/4 313/1/4
f 311/1/4 312/1/4 313/1/4
f 313/1/4 312/1/4 314/1/4
f 307/1/4 313/1/4 315/1/4
f 313/3/4 314/3/4 315/3/4
f 314/1/4 312/1/4 316/1/4
f 315/3/4 314/3/4 316/3/4
f 307/1/4 315/1/4 317/1/4
f 315/1/4 316/1/4 317/1/4
f 316/1/4 312/1/4 318/1/4
f 317/1/4 316/1/4 318/1/4
f 312/1/4 306/1/4 319/1/4
f 318/1/4 312/1/4 319/1/4
f 319/1/4 306/1/4 320/1/4
f 318/1/4 319/1/4 321/1/4
f 319/3/4 320/3/4 322/3/4
f 321/1/4 319/1/4 322/1/4
f 322/3/4 320/3/4 323/3/4
f 326/1/5 325/1/5 324/1/5
f 327/1/5 325/1/5 326/1/5
f 332/1/5 329/1/5 328/1/5
f 332/3/5 330/3/5 329/3/5
f 333/1/5 331/1/5 330/1/5
f 333/3/5 330/3/5 332/3/5
f 334/1/5 332/1/5 328/1/5
f 334/1/5 333/1/5 332/1/5
f 335/1/5 331/1/5 333/1/5
f 335/1/5 333/1/5 334/1/5
f 336/1/5 331/1/5 335/1/5
f 337/1/5 331/1/5 336/1/5
f 338/1/5 334/1/5 328/1/5
f 339/1/5 336/1/5 335/1/5
f 340/3/5 337/3/5 336/3/5
f 340/1/5 336/1/5 339/1/5
f 341/3/5 337/3/5 340/3/5
f 342/1/5 339/1/5 338/1/5
f 342/1/5 338/1/5 328/1/5
f 342/1/5 341/1/5 340/1/5
f 342/1/5 340/1/5 339/1/5
f 343/1/5 341/1/5 342/1/5
f 344/1/5 342/1/5 328/1/5
f 345/3/5 343/3/5 342/3/5
f 345/1/5 342/1/5 344/1/5
f 346/1/5 341/1/5 343/1/5
f 346/3/5 343/3/5 345/3/5
f 347/1/5 341/1/5 346/1/5
f 353/1/5 349/1/5 348/1/5
f 354/3/5 350/3/5 349/3/5
f 354/1/5 349/1/5 353/1/5
f 355/1/5 351/1/5 350/1/5
f 355/3/5 350/3/5 354/3/5
f 356/1/5 351/1/5 355/1/5
f 357/1/5 351/1/5 356/1/5
f 359/1/5 358/1/5 357/1/5
f 360/1/5 358/1/5 359/1/5
f 361/1/5 353/1/5 352/1/5
f 362/1/5 353/1/5 361/1/5
f 365/1/5 358/1/5 360/1/5
f 366/1/5 358/1/5 365/1/5
f 367/1/5 364/1/5 363/1/5
f 367/1/5 365/1/5 364/1/5
f 367/1/5 363/1/5 362/1/5
f 368/1/5 365/1/5 367/1/5
f 373/1/5 370/1/5 369/1/5
f 374/1/5 370/1/5 373/1/5
f 375/1/5 372/1/5 371/1/5
f 376/1/5 372/1/5 375/1/5
f 381/1/5 378/1/5 377/1/5
f 382/1/5 378/1/5 381/1/5
f 383/1/5 380/1/5 379/1/5
f 384/1/5 380/1/5 383/1/5
f 385/1/6 386/1/6 387/1/6
f 387/1/6 386/1/6 388/1/6
f 385/1/6 387/1/6 389/1/6
f 388/1/6 386/1/6 390/1/6
f 390/1/6 386/1/6 391/1/6
f 385/1/6 389/1/6 392/1/6
f 389/1/6 390/1/6 392/1/6
f 390/3/6 391/3/6 393/3/6
f 392/1/6 390/1/6 393/1/6
f 393/3/6 391/3/6 394/3/6
f 395/1/6 396/1/6 400/1/6
f 400/1/6 396/1/6 401/1/6
f 397/1/6 398/1/6 402/1/6
f 402/1/6 398/1/6 403/1/6
f 399/1/6 400/1/6 405/1/6
f 405/1/6 400/1/6 406/1/6
f 403/1/6 404/1/6 407/1/6
f 407/1/6 404/1/6 408/1/6
f 409/1/6 410/1/6 413/1/6
f 413/1/6 410/1/6 414/1/6
f 411/1/6 412/1/6 417/1/6
f 417/1/6 412/1/6 418/1/6
f 414/1/6 415/1/6 419/1/6
f 419/1/6 415/1/6 420/1/6
f 416/1/6 417/1/6 421/1/6
f 421/1/6 417/1/6 422/1/6
f 423/2/6 424/2/6 429/2/6
f 429/2/6 424/2/6 430/2/6
f 425/2/6 426/2/6 431/2/6
f 431/2/6 426/2/6 432/2/6
f 427/2/6 428/2/6 433/2/6
f 433/2/6 428/2/6 434/2/6
f 431/2/6 432/2/6 436/2/6
f 432/2/6 433/2/6 436/2/6
f 430/2/6 431/2/6 436/2/6
f 436/2/6 433/2/6 437/2/6
f 437/2/6 433/2/6 438/2/6
f 438/2/6 433/2/6 439/2/6
f 435/2/6 436/2/6 441/2/6
f 436/2/6 437/2/6 441/2/6
f 441/2/6 437/2/6 442/2/6
f 442/2/6 437/2/6 443/2/6
f 439/2/6 440/2/6 444/2/6
f 438/2/6 439/2/6 444/2/6
f 444/2/6 440/2/6 445/2/6
f 445/2/6 440/2/6 446/2/6
f 442/2/6 443/2/6 448/2/6
f 444/2/6 445/2/6 448/2/6
f 443/2/6 444/2/6 448/2/6
f 448/2/6 445/2/6 449/2/6
f 449/2/6 445/2/6 450/2/6
f 450/2/6 445/2/6 451/2/6
f 447/2/6 448/2/6 453/2/6
f 453/2/6 448/2/6 454/2/6
f 449/2/6 450/2/6 455/2/6
f 455/2/6 450/2/6 456/2/6
f 451/2/6 452/2/6 457/2/6
f 457/2/6 452/2/6 458/2/6
f 459/2/6 460/2/6 461/2/6
f 461/2/6 460/2/6 462/2/6
